<svg width="1882" height="317" viewBox="0 0 1882 317" fill="none" xmlns="http://www.w3.org/2000/svg">
<path d="M1438.26 150.704C1512.15 186.15 1564.28 120.266 1585.18 74.3528C1587.49 69.282 1584.85 63.4011 1579.41 62.1739C1545.6 54.5385 1482.5 61.5247 1434.57 137.454C1431.62 142.124 1433.28 148.315 1438.26 150.704Z" fill="#9AE6BE"/>
<path d="M1108.87 170.537C1115.12 252.253 1198.24 264.451 1248.46 259.598C1254 259.062 1257.77 253.832 1256.12 248.512C1245.82 215.408 1208.23 164.263 1118.5 160.713C1112.98 160.495 1108.45 165.03 1108.87 170.537Z" fill="#9AE6BE"/>
<path d="M768.79 170.099C795.975 247.413 879.419 237.683 926.667 219.999C931.885 218.046 934.174 212.018 931.198 207.307C912.686 177.996 863.134 138.325 775.547 158.118C770.16 159.335 766.958 164.889 768.79 170.099Z" fill="#9AE6BE"/>
<path d="M344.314 157.177C308.868 231.069 374.752 283.193 420.665 304.098C425.736 306.406 431.617 303.763 432.844 298.328C440.479 264.511 433.493 201.421 357.564 153.484C352.894 150.535 346.703 152.198 344.314 157.177Z" fill="#9AE6BE"/>
<path d="M1712.38 167.338C1774.58 220.701 1841.98 170.553 1874.05 131.615C1877.59 127.314 1876.56 120.949 1871.63 118.357C1840.94 102.23 1778.19 92.6489 1712.24 153.584C1708.18 157.332 1708.18 163.742 1712.38 167.338Z" fill="#9AE6BE"/>
<rect x="-27" y="146.018" width="1753" height="29" rx="14.5" fill="#3BB273"/>
<rect x="-27" y="146.018" width="1753" height="29" rx="14.5" fill="#247D4E"/>
<path d="M1812.82 281.757C1732.27 296.871 1698.97 219.742 1690.67 169.982C1689.75 164.486 1693.82 159.49 1699.39 159.711C1734.03 161.088 1793.16 184.166 1819.82 269.915C1821.45 275.189 1818.25 280.738 1812.82 281.757Z" fill="#247D4E"/>
<path d="M1326.2 154.489C1407.91 160.737 1420.11 243.856 1415.26 294.071C1414.72 299.617 1409.49 303.388 1404.17 301.733C1371.07 291.437 1319.92 253.842 1316.37 164.117C1316.16 158.598 1320.69 154.068 1326.2 154.489Z" fill="#247D4E"/>
<path d="M1040.22 7.34909C1093.58 69.5491 1043.44 136.948 1004.5 169.024C1000.2 172.567 993.832 171.535 991.24 166.603C975.112 135.915 965.531 73.166 1026.47 7.21037C1030.21 3.15378 1036.62 3.15747 1040.22 7.34909Z" fill="#247D4E"/>
<path d="M837.773 245.108C763.881 280.554 711.758 214.67 690.853 168.757C688.544 163.686 691.188 157.805 696.623 156.578C730.44 148.942 793.53 155.929 841.467 231.858C844.415 236.528 842.753 242.719 837.773 245.108Z" fill="#247D4E"/>
<path d="M103.604 313.66C26.2903 286.474 36.0204 203.031 53.7042 155.783C55.6572 150.565 61.6851 148.276 66.3959 151.251C95.7069 169.764 135.379 219.316 115.585 306.903C114.368 312.29 108.814 315.492 103.604 313.66Z" fill="#247D4E"/>
<path d="M484.14 157.358C469.026 76.8101 546.156 43.5149 595.915 35.2056C601.411 34.2879 606.407 38.3636 606.186 43.9309C604.809 78.5715 581.732 137.704 495.983 164.356C490.709 165.995 485.159 162.787 484.14 157.358Z" fill="#247D4E"/>
<path d="M132.374 157.114C138.622 75.3983 221.741 63.2001 271.956 68.0527C277.502 68.5887 281.273 73.8187 279.618 79.139C269.322 112.243 231.727 163.388 142.002 166.938C136.483 167.156 131.953 162.621 132.374 157.114Z" fill="#247D4E"/>
</svg>
