<svg width="1904" height="564" viewBox="0 0 1904 564" fill="none" xmlns="http://www.w3.org/2000/svg">
<path d="M459.419 340.669C390.785 385.457 330.509 326.941 303.79 284.149C300.839 279.422 302.692 273.247 307.92 271.321C340.451 259.337 403.914 258.028 461.351 327.051C464.884 331.296 464.044 337.651 459.419 340.669Z" fill="#9AE6BE"/>
<path d="M788.577 317.339C793.048 399.171 712.232 422.114 661.814 423.858C656.245 424.05 651.824 419.357 652.77 413.866C658.657 379.702 689.255 324.087 777.749 308.856C783.192 307.919 788.276 311.825 788.577 317.339Z" fill="#9AE6BE"/>
<path d="M1125.69 272.515C1108.83 352.716 1024.83 353.961 975.681 342.595C970.253 341.34 967.197 335.663 969.532 330.604C984.06 299.127 1028.01 253.327 1117.43 261.519C1122.93 262.023 1126.83 267.111 1125.69 272.515Z" fill="#9AE6BE"/>
<path d="M1544.85 204.299C1589.64 272.932 1531.12 333.209 1488.33 359.928C1483.6 362.879 1477.43 361.026 1475.5 355.797C1463.52 323.267 1462.21 259.804 1531.23 202.366C1535.48 198.834 1541.83 199.674 1544.85 204.299Z" fill="#9AE6BE"/>
<path d="M189.82 392.941C135.118 453.966 61.7495 413.044 24.8655 378.626C20.7919 374.824 20.9839 368.379 25.5354 365.166C53.8559 345.171 114.817 327.481 188.162 379.286C192.673 382.472 193.507 388.828 189.82 392.941Z" fill="#9AE6BE"/>
<rect width="1753" height="29" rx="14.5" transform="matrix(-0.991445 0.130526 0.130526 0.991445 1911.53 144.769)" fill="#3BB273"/>
<rect width="1753" height="29" rx="14.5" transform="matrix(-0.991445 0.130526 0.130526 0.991445 1911.53 144.769)" fill="#247D4E"/>
<path d="M105.172 519.491C187.004 523.962 209.947 443.147 211.69 392.728C211.883 387.16 207.19 382.738 201.699 383.684C167.535 389.571 111.92 420.169 96.689 508.663C95.7522 514.106 99.6576 519.19 105.172 519.491Z" fill="#247D4E"/>
<path d="M571.018 329.795C490.817 346.656 489.572 430.656 500.938 479.807C502.193 485.236 507.87 488.292 512.929 485.957C544.406 471.429 590.206 427.479 582.014 338.058C581.51 332.558 576.422 328.659 571.018 329.795Z" fill="#247D4E"/>
<path d="M835.342 146.587C790.554 215.22 849.071 275.496 891.863 302.215C896.589 305.166 902.765 303.313 904.691 298.085C916.675 265.554 917.983 202.091 848.961 144.654C844.716 141.121 838.361 141.961 835.342 146.587Z" fill="#247D4E"/>
<path d="M1067.09 355.886C1144.98 381.384 1188.06 309.261 1202.79 261.012C1204.42 255.683 1201.03 250.197 1195.48 249.69C1160.95 246.534 1099.32 261.695 1061.7 343.232C1059.39 348.247 1061.84 354.168 1067.09 355.886Z" fill="#247D4E"/>
<path d="M1803.93 328.024C1877.03 290.979 1856.49 209.52 1832.79 164.985C1830.18 160.066 1823.9 158.583 1819.62 162.148C1792.98 184.328 1760.11 238.634 1791.17 322.888C1793.08 328.07 1799 330.52 1803.93 328.024Z" fill="#247D4E"/>
<path d="M1406.25 222.729C1410.72 140.897 1329.9 117.954 1279.48 116.211C1273.91 116.019 1269.49 120.712 1270.44 126.202C1276.33 160.367 1306.92 215.981 1395.42 231.213C1400.86 232.149 1405.94 228.244 1406.25 222.729Z" fill="#247D4E"/>
<path d="M1754.97 176.572C1738.11 96.3714 1654.11 95.1267 1604.96 106.492C1599.53 107.747 1596.47 113.425 1598.81 118.484C1613.34 149.96 1657.29 195.76 1746.71 187.569C1752.21 187.065 1756.11 181.977 1754.97 176.572Z" fill="#247D4E"/>
</svg>
