<svg width="883" height="293" viewBox="0 0 883 293" fill="none" xmlns="http://www.w3.org/2000/svg">
<path d="M79.25 12.4204C160.922 19.2193 172.559 102.418 167.369 152.599C166.795 158.141 161.54 161.877 156.231 160.187C123.197 149.668 72.307 111.729 69.3614 21.9817C69.1802 16.4618 73.7462 11.9622 79.25 12.4204Z" fill="#9AE6BE"/>
<path d="M0.373886 227.911C6.62245 146.195 89.741 133.997 139.956 138.85C145.502 139.386 149.273 144.616 147.618 149.936C137.322 183.04 99.7268 234.185 10.0016 237.735C4.48311 237.953 -0.0471955 233.418 0.373886 227.911Z" fill="#247D4E"/>
<path d="M704.374 246.651C710.622 164.936 793.741 152.737 843.956 157.59C849.502 158.126 853.273 163.356 851.618 168.676C841.322 201.78 803.727 252.925 714.002 256.475C708.483 256.693 703.953 252.158 704.374 246.651Z" fill="#247D4E"/>
<path d="M471.027 0.441367C552.699 7.24032 564.337 90.4392 559.146 140.62C558.572 146.162 553.317 149.898 548.008 148.208C514.974 137.689 464.084 99.7498 461.139 10.0027C460.957 4.48284 465.523 -0.0168047 471.027 0.441367Z" fill="#247D4E"/>
<path d="M208.35 60.6672C282.242 25.2209 334.365 91.1046 355.27 137.018C357.579 142.089 354.935 147.97 349.5 149.197C315.684 156.833 252.593 149.846 204.656 73.917C201.708 69.247 203.37 63.0559 208.35 60.6672Z" fill="#9AE6BE"/>
<path d="M606.864 63.9846C680.756 28.5382 732.879 94.4219 753.784 140.336C756.093 145.406 753.449 151.287 748.014 152.514C714.198 160.15 651.107 153.164 603.17 77.2344C600.222 72.5644 601.884 66.3733 606.864 63.9846Z" fill="#9AE6BE"/>
<path d="M381.189 292.297C462.905 286.048 475.103 202.929 470.25 152.715C469.715 147.169 464.485 143.398 459.164 145.052C426.06 155.348 374.916 192.944 371.365 282.669C371.147 288.187 375.683 292.718 381.189 292.297Z" fill="#9AE6BE"/>
<rect x="892.524" y="163.67" width="763" height="29" rx="14.5" transform="rotate(180 892.524 163.67)" fill="#247D4E"/>
</svg>
