<svg width="1920" height="116" viewBox="0 0 1920 116" fill="none" xmlns="http://www.w3.org/2000/svg">
<path d="M3.14434 105.55C21.7441 59.0219 72.7966 63.4974 104.045 74.2724C109.312 76.0888 111.597 82.129 108.366 86.6684C95.0121 105.432 63.4111 128.315 9.76108 117.374C4.34962 116.271 1.09428 110.678 3.14434 105.55Z" fill="#247D4E"/>
<path d="M619.365 105.55C637.964 59.0219 689.017 63.4974 720.265 74.2724C725.532 76.0888 727.817 82.129 724.586 86.6684C711.232 105.432 679.631 128.315 625.981 117.374C620.57 116.271 617.315 110.678 619.365 105.55Z" fill="#247D4E"/>
<path d="M1555.06 105.55C1573.66 59.0219 1624.72 63.4974 1655.97 74.2724C1661.23 76.0888 1663.52 82.129 1660.29 86.6684C1646.93 105.432 1615.33 128.315 1561.68 117.374C1556.27 116.271 1553.01 110.678 1555.06 105.55Z" fill="#247D4E"/>
<path d="M1082.57 57.8956C1142.54 30.353 1185.07 82.8717 1202.78 120.724C1205.14 125.77 1202.5 131.633 1197.04 132.737C1168.72 138.464 1117.95 131.83 1078.88 71.0811C1075.89 66.436 1077.56 60.2008 1082.57 57.8956Z" fill="#247D4E"/>
<path d="M977.403 84.827C1016.77 53.8326 1058.75 83.2348 1080.42 108.19C1084.08 112.397 1083.04 118.77 1077.97 121.086C1057.02 130.659 1018.21 134.676 977.221 98.376C973.086 94.7145 973.063 88.2431 977.403 84.827Z" fill="#247D4E"/>
<path d="M1249.13 126.609C1255.05 76.8522 1305.52 67.9619 1338.49 70.2822C1344.05 70.6733 1347.82 75.9164 1345.87 81.1374C1337.83 102.718 1313.23 133 1258.58 136.318C1253.06 136.653 1248.47 132.093 1249.13 126.609Z" fill="#247D4E"/>
<path d="M1761.24 134.731C1711.65 141.887 1690 95.4362 1683.71 62.9871C1682.65 57.5172 1686.73 52.5186 1692.28 53.0467C1715.21 55.2297 1750.83 71.1553 1768.18 123.088C1769.93 128.326 1766.71 133.942 1761.24 134.731Z" fill="#247D4E"/>
<path d="M289.413 134.884C269.665 88.8316 308.93 55.8967 338.644 41.4201C343.653 38.9798 349.54 41.6354 350.465 47.1298C354.291 69.8401 348.126 108.366 302.454 138.566C297.847 141.612 291.59 139.959 289.413 134.884Z" fill="#247D4E"/>
<path d="M151.104 57.8956C211.067 30.353 253.596 82.8717 271.31 120.724C273.672 125.77 271.029 131.633 265.567 132.737C237.246 138.464 186.476 131.83 147.407 71.0811C144.419 66.436 146.085 60.2008 151.104 57.8956Z" fill="#247D4E"/>
<path d="M353.903 99.8108C392.062 45.9767 455.152 70.1949 489.419 94.1187C493.988 97.3082 494.63 103.707 490.453 107.394C468.789 126.514 421.504 146.153 357.294 113.078C352.385 110.549 350.71 104.317 353.903 99.8108Z" fill="#247D4E"/>
<path d="M915.415 151.326C861.58 113.167 885.799 50.0771 909.722 15.8097C912.912 11.2412 919.311 10.599 922.998 14.7763C942.118 36.44 961.757 83.725 928.682 147.935C926.153 152.844 919.92 154.519 915.415 151.326Z" fill="#247D4E"/>
<path d="M1788.91 87.281C1835.18 19.6376 1913.26 50.633 1954.32 79.9428C1958.85 83.1799 1959.5 89.5948 1955.41 93.375C1929.94 116.896 1871.81 142.391 1792.33 100.603C1787.44 98.0325 1785.79 91.8395 1788.91 87.281Z" fill="#247D4E"/>
<path d="M1367.7 30.4645C1448.24 15.3507 1481.54 92.4799 1489.85 142.24C1490.77 147.735 1486.69 152.732 1481.12 152.51C1446.48 151.133 1387.35 128.056 1360.7 42.3068C1359.06 37.0329 1362.27 31.483 1367.7 30.4645Z" fill="#247D4E"/>
<path d="M490.58 23.6501C571.128 8.53622 604.423 85.6655 612.732 135.425C613.65 140.921 609.574 145.917 604.007 145.696C569.366 144.319 510.234 121.241 483.582 35.4924C481.943 30.2184 485.151 24.6686 490.58 23.6501Z" fill="#247D4E"/>
<path d="M723.516 129.95C729.764 48.235 812.883 36.0368 863.097 40.8894C868.643 41.4253 872.414 46.6554 870.76 51.9757C860.464 85.0794 822.868 136.224 733.143 139.774C727.625 139.993 723.094 135.457 723.516 129.95Z" fill="#247D4E"/>
</svg>
