<svg width="1920" height="334" viewBox="0 0 1920 334" fill="none" xmlns="http://www.w3.org/2000/svg">
<path d="M0 168.792L24.6662 131.492C49.1991 93.7919 98.6648 19.7919 147.997 3.49191C196.93 -12.2081 246.662 29.7919 295.994 35.4919C344.66 40.7919 393.326 8.7919 442.658 35.4919C492.257 61.7919 541.323 147.792 590.655 179.492C639.988 211.792 689.32 189.792 738.653 142.092C787.718 93.7919 837.317 19.7919 886.65 19.4919C935.315 19.7919 983.981 93.7919 1033.31 104.792C1083.05 115.792 1131.98 61.7919 1181.31 35.4919C1230.78 8.7919 1279.98 8.7919 1329.31 35.4919C1378.37 61.7919 1427.97 115.792 1477.31 131.492C1526.1 147.792 1575.97 125.792 1623.97 110.092C1673.83 93.7919 1722.63 83.7919 1771.97 94.0919C1821.57 104.792 1870.63 136.792 1895.96 152.792L1919.96 168.792V264.792H1895.3C1870.76 264.792 1821.3 264.792 1771.97 264.792C1723.03 264.792 1673.3 264.792 1623.97 264.792C1575.3 264.792 1526.64 264.792 1477.31 264.792C1427.71 264.792 1378.64 264.792 1329.31 264.792C1279.98 264.792 1230.64 264.792 1181.31 264.792C1132.24 264.792 1082.65 264.792 1033.31 264.792C984.648 264.792 935.982 264.792 886.65 264.792C836.917 264.792 787.985 264.792 738.653 264.792C689.187 264.792 639.988 264.792 590.655 264.792C541.59 264.792 491.991 264.792 442.658 264.792C393.859 264.792 343.993 264.792 295.994 264.792C246.129 264.792 197.33 264.792 147.997 264.792C98.3981 264.792 49.3324 264.792 23.9995 264.792H0V168.792Z" fill="#9AE6BE"/>
<path d="M0.0795135 237.102L24.7457 199.802C49.2786 162.102 98.7443 88.1025 148.077 71.8025C197.009 56.1025 246.741 98.1024 296.074 103.802C344.74 109.102 393.405 77.1024 442.738 103.802C492.337 130.102 541.403 216.102 590.735 247.802C640.067 280.102 689.4 258.102 738.732 210.402C787.798 162.102 837.397 88.1024 886.729 87.8024C935.395 88.1024 984.061 162.102 1033.39 173.102C1083.13 184.102 1132.06 130.102 1181.39 103.802C1230.86 77.1024 1280.06 77.1024 1329.39 103.802C1378.45 130.102 1428.05 184.102 1477.38 199.802C1526.18 216.102 1576.05 194.102 1624.05 178.402C1673.91 162.102 1722.71 152.102 1772.05 162.402C1821.64 173.102 1870.71 205.102 1896.04 221.102L1920.04 237.102V333.102H1895.38C1870.84 333.102 1821.38 333.102 1772.05 333.102C1723.11 333.102 1673.38 333.102 1624.05 333.102C1575.38 333.102 1526.72 333.102 1477.38 333.102C1427.79 333.102 1378.72 333.102 1329.39 333.102C1280.06 333.102 1230.72 333.102 1181.39 333.102C1132.32 333.102 1082.73 333.102 1033.39 333.102C984.727 333.102 936.062 333.102 886.729 333.102C836.997 333.102 788.064 333.102 738.732 333.102C689.266 333.102 640.067 333.102 590.735 333.102C541.669 333.102 492.07 333.102 442.738 333.102C393.939 333.102 344.073 333.102 296.074 333.102C246.208 333.102 197.409 333.102 148.077 333.102C98.4776 333.102 49.4119 333.102 24.0791 333.102H0.0795135V237.102Z" fill="#3BB273"/>
</svg>
