<svg width="150" height="150" viewBox="0 0 150 150" fill="none" xmlns="http://www.w3.org/2000/svg">
<path d="M150 75C150 116.371 116.371 150 75 150C33.629 150 0 116.371 0 75C0 33.629 33.629 0 75 0C116.371 0 150 33.629 150 75ZM103.004 91.6936C103.004 75.9678 86.1895 71.4919 78.9315 69.4355C65.2016 65.625 64.0524 60.6653 64.2339 58.125C64.7177 51.9556 71.4919 50.4436 77.7823 51.7742C82.7419 52.8629 87.8226 55.7661 90.6653 58.004L99.6774 47.4798C95.2621 44.4556 89.5766 40.5242 81.2903 38.9516V28.7298H68.1653V38.5887C55.4637 39.5565 46.996 47.5403 46.996 58.4879C46.996 69.1936 54.7379 74.2137 62.4798 77.9637C68.9516 81.0484 86.9758 84.254 85.9476 92.4194C85.4032 96.8347 80.6855 100.101 72.8831 99.1331C66.1089 98.2863 58.8508 92.6008 58.8508 92.6008L48.9315 102.46C54.9194 107.298 61.2702 110.323 68.1653 111.714V121.331H81.2903V112.198C93.8105 110.806 103.004 102.278 103.004 91.6936Z" fill="#F7FAFC"/>
</svg>
