<svg width="968" height="1292" viewBox="0 0 968 1292" fill="none" xmlns="http://www.w3.org/2000/svg">
<path d="M703.134 436.996C770.464 483.72 738.944 561.591 709.358 602.454C706.09 606.967 699.671 607.574 695.919 603.456C672.57 577.83 647.467 519.528 689.79 440.332C692.393 435.461 698.597 433.847 703.134 436.996Z" fill="#3BB273"/>
<path d="M454.25 260.62C521.581 307.344 490.06 385.215 460.474 426.078C457.207 430.591 450.787 431.199 447.035 427.08C423.686 401.454 398.583 343.152 440.906 263.956C443.509 259.085 449.713 257.471 454.25 260.62Z" fill="#3BB273"/>
<path d="M451.456 587.46C525.585 622.408 577.263 556.175 597.858 510.121C600.133 505.035 597.45 499.172 592.007 497.982C558.139 490.574 495.097 497.985 447.673 574.236C444.756 578.925 446.46 585.105 451.456 587.46Z" fill="#3BB273"/>
<path d="M165.667 422.46C239.797 457.408 291.475 391.175 312.07 345.121C314.344 340.035 311.661 334.172 306.218 332.982C272.351 325.574 209.309 332.985 161.884 409.236C158.968 413.925 160.672 420.105 165.667 422.46Z" fill="#3BB273"/>
<path d="M716.947 773.154C654.389 826.097 587.329 775.496 555.516 736.342C552.002 732.018 553.077 725.66 558.026 723.102C588.822 707.181 651.634 698.023 717.178 759.401C721.209 763.176 721.162 769.586 716.947 773.154Z" fill="#3BB273"/>
<path d="M177.211 905.56C254.525 932.745 244.795 1016.19 227.111 1063.44C225.158 1068.65 219.13 1070.94 214.419 1067.97C185.108 1049.46 145.436 999.904 165.23 912.317C166.447 906.93 172.001 903.728 177.211 905.56Z" fill="#3BB273"/>
<path d="M495.104 984.626C432.546 1037.57 365.486 986.968 333.673 947.814C330.16 943.49 331.234 937.132 336.184 934.574C366.98 918.653 429.792 909.495 495.335 970.873C499.367 974.648 499.32 981.058 495.104 984.626Z" fill="#3BB273"/>
<path d="M413.469 663.989C360.526 726.548 411.127 793.607 450.281 825.42C454.605 828.934 460.963 827.859 463.522 822.91C479.442 792.114 488.6 729.302 427.222 663.758C423.447 659.727 417.037 659.774 413.469 663.989Z" fill="#3BB273"/>
<path d="M61.9267 19.0768C240.074 25.7113 261.416 208.025 248.856 308.87C248.167 314.399 243.006 318.17 237.593 316.85C171.099 300.633 55.7441 224.903 51.9052 28.9893C51.797 23.4675 56.4077 18.8713 61.9267 19.0768Z" fill="#247D4E"/>
<path d="M60.9309 965.332C239.079 971.967 260.421 1154.28 247.86 1255.13C247.171 1260.65 242.011 1264.43 236.598 1263.11C170.103 1246.89 54.7482 1171.16 50.9094 975.245C50.8012 969.723 55.4119 965.127 60.9309 965.332Z" fill="#247D4E"/>
<path d="M890.556 440.957C930.256 614.751 759.678 682.552 659.018 696.52C653.499 697.286 648.521 693.277 648.395 687.707C646.849 619.281 690.143 488.256 878.388 433.842C883.693 432.308 889.326 435.572 890.556 440.957Z" fill="#247D4E"/>
<path d="M161.248 111.568L189.483 216.941L167.205 222.911L144.636 138.684L144.019 138.85L123.941 160.442L118.647 140.685L140.308 117.179L161.248 111.568Z" fill="#F7FAFC"/>
<path d="M183.321 1164.21C176.432 1168.18 169.613 1170.54 162.864 1171.28C156.128 1171.97 149.999 1171.12 144.479 1168.73C138.971 1166.3 134.581 1162.35 131.311 1156.9L151.424 1145.29C152.879 1147.52 154.804 1149.12 157.2 1150.07C159.609 1150.98 162.257 1151.23 165.145 1150.83C168.033 1150.44 170.937 1149.4 173.859 1147.71C176.904 1145.95 179.284 1143.86 181 1141.44C182.715 1139.01 183.684 1136.46 183.906 1133.79C184.127 1131.12 183.519 1128.54 182.081 1126.05C180.625 1123.53 178.63 1121.71 176.097 1120.59C173.577 1119.42 170.69 1119.03 167.436 1119.43C164.214 1119.82 160.819 1121.04 157.252 1123.1L148.441 1128.19L139.971 1113.52L148.782 1108.43C151.796 1106.69 154.154 1104.63 155.857 1102.26C157.591 1099.86 158.571 1097.37 158.797 1094.78C159.006 1092.15 158.391 1089.6 156.953 1087.11C155.585 1084.74 153.818 1082.99 151.65 1081.86C149.495 1080.69 147.11 1080.18 144.495 1080.34C141.91 1080.48 139.279 1081.32 136.604 1082.86C133.897 1084.43 131.706 1086.35 130.029 1088.63C128.334 1090.88 127.325 1093.28 127.002 1095.85C126.679 1098.41 127.163 1100.92 128.456 1103.37L109.312 1114.43C106.261 1108.93 105.045 1103.24 105.662 1097.34C106.278 1091.45 108.465 1085.86 112.22 1080.58C115.989 1075.25 121.102 1070.72 127.561 1066.99C134.081 1063.22 140.469 1061.11 146.726 1060.66C152.983 1060.2 158.628 1061.21 163.66 1063.67C168.705 1066.09 172.651 1069.8 175.497 1074.8C178.581 1080.07 179.484 1085.44 178.204 1090.89C176.956 1096.33 173.962 1101.05 169.222 1105.06L169.649 1105.79C177.114 1102.67 183.797 1102.03 189.699 1103.88C195.614 1105.67 200.251 1109.51 203.612 1115.4C206.75 1120.77 207.958 1126.44 207.236 1132.44C206.544 1138.41 204.154 1144.18 200.065 1149.74C195.976 1155.3 190.394 1160.12 183.321 1164.21Z" fill="#F7FAFC"/>
<path d="M721.269 579.222L733.02 567.471L785.903 569.504C790.498 569.58 794.49 569.504 797.88 569.278C801.295 569.078 804.283 568.525 806.845 567.621C809.431 566.692 811.741 565.211 813.775 563.177C816.035 560.917 817.466 558.456 818.069 555.794C818.697 553.107 818.559 550.433 817.655 547.772C816.776 545.085 815.206 542.611 812.946 540.351C810.586 537.991 808.05 536.409 805.338 535.606C802.626 534.802 799.902 534.815 797.165 535.643C794.427 536.472 791.829 538.117 789.368 540.577L773.887 525.097C778.934 520.05 784.459 516.81 790.46 515.379C796.461 513.948 802.538 514.274 808.69 516.358C814.842 518.443 820.605 522.172 825.979 527.545C831.503 533.069 835.332 538.857 837.467 544.909C839.651 550.961 840.166 556.849 839.011 562.574C837.856 568.299 835.056 573.384 830.611 577.829C827.699 580.741 824.246 583.039 820.253 584.721C816.286 586.429 811.113 587.559 804.735 588.111C798.382 588.639 790.146 588.664 780.027 588.187L757.729 587.961L757.201 588.488L789.594 620.88L776.26 634.214L721.269 579.222Z" fill="#F7FAFC"/>
<rect x="704.116" y="588.695" width="552.304" height="29" rx="14.5" transform="rotate(-150 704.116 588.695)" fill="#247D4E"/>
<rect x="205.994" y="1060.33" width="686.421" height="29" rx="14.5" transform="rotate(-45 205.994 1060.33)" fill="#247D4E"/>
</svg>
