<svg width="113" height="150" viewBox="0 0 113 150" fill="none" xmlns="http://www.w3.org/2000/svg">
<path fill-rule="evenodd" clip-rule="evenodd" d="M107.386 140.625C101.738 140.625 97.1591 136.046 97.1591 130.398V107.812C97.1591 89.6906 81.133 75 61.3636 75C81.133 75 97.1591 60.3094 97.1591 42.1875V19.6023C97.1591 13.9539 101.738 9.375 107.386 9.375C110.214 9.375 112.5 7.27969 112.5 4.6875C112.5 2.1 110.214 0 107.386 0H5.11364C2.2858 0 0 2.1 0 4.6875C0 7.27969 2.2858 9.375 5.11364 9.375C10.762 9.375 15.3409 13.9539 15.3409 19.6023V42.1875C15.3409 60.3094 31.367 75 51.1364 75C31.367 75 15.3409 89.6906 15.3409 107.812V130.398C15.3409 136.046 10.762 140.625 5.11364 140.625C2.2858 140.625 0 142.725 0 145.312C0 147.905 2.2858 150 5.11364 150H107.386C110.214 150 112.5 147.905 112.5 145.312C112.5 142.725 110.214 140.625 107.386 140.625Z" fill="#E9C46A"/>
</svg>
