<svg width="160" height="160" viewBox="0 0 160 160" fill="none" xmlns="http://www.w3.org/2000/svg">
<path d="M80 2.5C122.631 2.5 157.5 37.3693 157.5 80C157.5 122.631 122.631 157.5 80 157.5C37.3693 157.5 2.5 122.631 2.5 80C2.5 37.3693 37.3693 2.5 80 2.5ZM80 22.5C48.3807 22.5 22.5 48.3807 22.5 80C22.5 111.619 48.3807 137.5 80 137.5C111.619 137.5 137.5 111.619 137.5 80C137.5 48.3807 111.619 22.5 80 22.5Z" fill="#F7FAFC" stroke="#F7FAFC" stroke-width="5"/>
<path d="M80 32.5C82.8181 32.5 85.3606 33.4505 87.2051 35.2949C89.0495 37.1394 90 39.6819 90 42.5V72.0469L112.097 77.5713C114.716 78.1308 116.911 79.9186 118.227 82.0713C119.529 84.2027 120.142 86.99 119.163 89.6846C118.069 95.4098 113.056 98.4604 108.01 97.4512L107.951 97.4395L107.894 97.4258L77.8936 89.9258V89.9248C72.9585 88.8838 70 84.8134 70 80V42.5C70 39.6819 70.9505 37.1394 72.7949 35.2949C74.6394 33.4505 77.1819 32.5 80 32.5Z" fill="#F7FAFC" stroke="#F7FAFC" stroke-width="5"/>
</svg>
