<svg width="179" height="170" viewBox="0 0 179 170" fill="none" xmlns="http://www.w3.org/2000/svg">
<path d="M67.3555 38.1812C103.01 38.1812 132.211 67.08 132.211 102.461C132.211 137.843 103.01 166.741 67.3555 166.741C31.7013 166.741 2.50022 137.843 2.5 102.461C2.5 67.08 31.7012 38.1812 67.3555 38.1812ZM67.3555 55.5376C41.2779 55.5376 19.9707 76.6808 19.9707 102.461C19.9709 128.242 41.278 149.385 67.3555 149.385C93.433 149.385 114.74 128.242 114.74 102.461C114.74 76.6808 93.4331 55.5376 67.3555 55.5376Z" fill="#2D9CDB" stroke="#2D9CDB" stroke-width="5"/>
<path d="M67.3553 62.8931C69.7871 62.8931 72.0111 63.7065 73.6356 65.3159C75.2622 66.9275 76.0906 69.1424 76.0907 71.5708V95.562L94.1464 100.035H94.1454C96.4377 100.527 98.3476 102.073 99.4921 103.928C100.624 105.764 101.177 108.193 100.322 110.562C99.3492 115.512 94.9545 118.139 90.5643 117.269L90.5067 117.258L90.4501 117.244L65.5077 111.066H65.5067C61.2161 110.162 58.6202 106.632 58.62 102.461V71.5708C58.62 69.1424 59.4485 66.9275 61.0751 65.3159C62.6996 63.7064 64.9236 62.8931 67.3553 62.8931Z" fill="#2D9CDB" stroke="#2D9CDB" stroke-width="5"/>
<path d="M178.983 32.7865C178.983 50.872 164.145 65.5731 145.891 65.5731C127.637 65.5731 112.799 50.872 112.799 32.7865C112.799 14.7011 127.637 0 145.891 0C164.145 0 178.983 14.7011 178.983 32.7865ZM158.247 40.0842C158.247 33.2096 150.828 31.253 147.626 30.354C141.568 28.6882 141.061 26.5201 141.141 25.4096C141.354 22.7126 144.343 22.0516 147.119 22.6333C149.307 23.1092 151.549 24.3784 152.803 25.3567L156.78 20.756C154.831 19.434 152.323 17.7153 148.667 17.0278V12.5594H142.876V16.8692C137.271 17.2923 133.535 20.7824 133.535 25.5682C133.535 30.2482 136.951 32.4428 140.367 34.0821C143.223 35.4306 151.175 36.832 150.722 40.4015C150.481 42.3316 148.4 43.7594 144.957 43.3364C141.968 42.9662 138.766 40.4808 138.766 40.4808L134.389 44.7906C137.031 46.9059 139.833 48.2279 142.876 48.8361V53.0402H148.667V49.0476C154.191 48.4395 158.247 44.7113 158.247 40.0842Z" fill="#2D9CDB"/>
</svg>
