<svg width="317" height="1820" viewBox="0 0 317 1820" fill="none" xmlns="http://www.w3.org/2000/svg">
<path d="M165.91 1375.93C130.464 1449.82 196.348 1501.94 242.261 1522.85C247.332 1525.16 253.213 1522.51 254.44 1517.08C262.076 1483.26 255.089 1420.17 179.16 1372.23C174.49 1369.29 168.299 1370.95 165.91 1375.93Z" fill="#9AE6BE"/>
<path d="M146.077 1046.54C64.3615 1052.79 52.1633 1135.91 57.0159 1186.12C57.5519 1191.67 62.7819 1195.44 68.1022 1193.78C101.206 1183.49 152.351 1145.89 155.901 1056.17C156.119 1050.65 151.584 1046.12 146.077 1046.54Z" fill="#9AE6BE"/>
<path d="M146.515 706.457C69.2012 733.642 78.9313 817.086 96.6151 864.334C98.5682 869.552 104.596 871.841 109.307 868.865C138.618 850.353 178.289 800.801 158.496 713.214C157.279 707.827 151.725 704.625 146.515 706.457Z" fill="#9AE6BE"/>
<path d="M159.436 281.981C85.5445 246.535 33.4213 312.419 12.5164 358.332C10.2076 363.403 12.8513 369.284 18.2862 370.511C52.1028 378.146 115.193 371.16 163.13 295.231C166.079 290.561 164.416 284.37 159.436 281.981Z" fill="#9AE6BE"/>
<path d="M149.276 1650.04C95.9127 1712.24 146.061 1779.64 184.999 1811.72C189.3 1815.26 195.665 1814.23 198.257 1809.3C214.384 1778.61 223.965 1715.86 163.03 1649.9C159.282 1645.85 152.872 1645.85 149.276 1650.04Z" fill="#9AE6BE"/>
<rect x="170.596" y="-89.333" width="1753" height="29" rx="14.5" transform="rotate(90 170.596 -89.333)" fill="#3BB273"/>
<rect x="170.596" y="-89.333" width="1753" height="29" rx="14.5" transform="rotate(90 170.596 -89.333)" fill="#247D4E"/>
<path d="M34.8572 1750.48C19.7433 1669.94 96.8726 1636.64 146.632 1628.33C152.128 1627.41 157.124 1631.49 156.903 1637.06C155.526 1671.7 132.449 1730.83 46.6995 1757.48C41.4255 1759.12 35.8757 1755.91 34.8572 1750.48Z" fill="#247D4E"/>
<path d="M162.125 1263.86C155.877 1345.58 72.758 1357.78 22.5433 1352.93C16.9974 1352.39 13.2262 1347.16 14.8809 1341.84C25.1767 1308.74 62.7723 1257.59 152.497 1254.04C158.016 1253.82 162.546 1258.36 162.125 1263.86Z" fill="#247D4E"/>
<path d="M309.265 977.888C247.065 1031.25 179.666 981.103 147.59 942.164C144.048 937.864 145.079 931.499 150.011 928.907C180.699 912.779 243.448 903.198 309.404 964.133C313.46 967.881 313.457 974.292 309.265 977.888Z" fill="#247D4E"/>
<path d="M71.5066 775.44C36.0603 701.548 101.944 649.425 147.858 628.52C152.928 626.211 158.809 628.855 160.036 634.29C167.672 668.107 160.686 731.197 84.7564 779.134C80.0864 782.082 73.8953 780.42 71.5066 775.44Z" fill="#247D4E"/>
<path d="M2.95442 41.2711C30.1396 -36.0427 113.583 -26.3126 160.831 -8.62883C166.049 -6.67577 168.338 -0.647912 165.363 4.06287C146.85 33.3739 97.2982 73.0455 9.71148 53.2521C4.32449 52.0347 1.12243 46.4812 2.95442 41.2711Z" fill="#247D4E"/>
<path d="M159.256 421.807C239.804 406.693 273.099 483.823 281.409 533.582C282.326 539.078 278.251 544.074 272.683 543.853C238.043 542.476 178.91 519.399 152.258 433.65C150.619 428.376 153.828 422.826 159.256 421.807Z" fill="#247D4E"/>
<path d="M159.5 70.0409C241.216 76.2895 253.414 159.408 248.561 209.623C248.025 215.169 242.795 218.94 237.475 217.285C204.371 206.989 153.226 169.394 149.676 79.6686C149.458 74.1501 153.994 69.6198 159.5 70.0409Z" fill="#247D4E"/>
</svg>
