<svg width="150" height="150" viewBox="0 0 150 150" fill="none" xmlns="http://www.w3.org/2000/svg">
<path d="M140.881 44.822C134.535 35.9751 124.475 31.1345 110.131 30.0189C101.903 29.3939 92.0192 31.5626 84.0793 33.3157C80.5024 34.1064 76.4423 35.0001 75 35.0001C73.5577 35.0001 69.5264 34.1064 65.9856 33.3157C58.024 31.5501 48.1154 29.3501 39.8618 30.022C25.9688 31.1501 16.0637 36.0189 9.57332 44.9032C3.08293 53.7876 0 66.5626 0 85.0001C0 104.15 10.6478 120.806 16.994 129.028C24.8149 139.169 36.5084 150 45.8654 150C52.5613 150 58.1683 147.741 63.1082 145.738C70.3125 142.813 75 142.5 75 142.5C75 142.5 78.9663 142.5 86.5168 145.659C91.4603 147.728 97.1034 150 104.135 150C113.719 150 125.438 139.159 133.208 129.016C139.478 120.828 150 104.225 150 85.0001C150 66.2501 147.115 53.4907 140.881 44.822ZM60.5769 105C55.7993 105 51.9231 98.2845 51.9231 90.0001C51.9231 81.7157 55.7993 75.0001 60.5769 75.0001C65.3546 75.0001 69.2308 81.7157 69.2308 90.0001C69.2308 98.2845 65.3546 105 60.5769 105ZM89.4231 105C84.6454 105 80.7692 98.2845 80.7692 90.0001C80.7692 81.7157 84.6454 75.0001 89.4231 75.0001C94.2007 75.0001 98.0769 81.7157 98.0769 90.0001C98.0769 98.2845 94.2007 105 89.4231 105Z" fill="#F7FAFC"/>
<path d="M99.4184 20.8625C110.221 11.5063 109.615 0.0562984 109.615 0.0437984C109.615 0.0437984 96.7176 -1.1312 85.3739 8.69067C74.0301 18.5125 75.0217 30 75.0217 30C75.0217 30 88.6083 30.2219 99.4184 20.8625Z" fill="#F7FAFC"/>
</svg>
