<svg width="174" height="179" viewBox="0 0 174 179" fill="none" xmlns="http://www.w3.org/2000/svg">
<path d="M5.82858 178.59H110.683C111.744 178.586 112.785 178.264 113.693 177.659C114.6 177.053 115.34 176.187 115.834 175.153C116.327 174.12 116.554 172.958 116.491 171.793C116.428 170.628 116.078 169.504 115.477 168.541L63.0499 85.285C60.8771 81.8331 55.646 81.8331 53.4674 85.285L1.04023 168.541C0.433389 169.501 0.0775216 170.626 0.0112947 171.793C-0.0549322 172.96 0.171015 174.125 0.664588 175.161C1.15816 176.197 1.90048 177.064 2.8109 177.668C3.72132 178.273 4.76501 178.591 5.82858 178.59Z" fill="#EB5757"/>
<path d="M5.82858 103.058H110.683C111.744 103.054 112.785 102.732 113.693 102.127C114.6 101.521 115.34 100.655 115.834 99.6217C116.327 98.5881 116.554 97.4263 116.491 96.2612C116.428 95.0961 116.078 93.9719 115.477 93.0096L63.0499 9.75338C60.8771 6.30145 55.646 6.30145 53.4674 9.75338L1.04023 93.0096C0.433389 93.9699 0.0775216 95.0946 0.0112947 96.2617C-0.0549322 97.4287 0.171015 98.5934 0.664588 99.6292C1.15816 100.665 1.90048 101.532 2.8109 102.137C3.72132 102.741 4.76501 103.06 5.82858 103.058Z" fill="#EB5757"/>
<path d="M157.808 45.7542H143.414V61.6687H132.619V45.7542H118.226V33.8183H132.619V17.9038H143.414V33.8183H157.808V45.7542ZM138.017 0C130.9 0 123.943 2.33342 118.026 6.70519C112.108 11.077 107.496 17.2907 104.773 24.5607C102.049 31.8307 101.337 39.8304 102.725 47.5481C104.114 55.2659 107.541 62.3552 112.573 67.9194C117.605 73.4836 124.017 77.2728 130.997 78.808C137.977 80.3432 145.212 79.5553 151.787 76.5439C158.362 73.5326 163.982 68.4331 167.936 61.8903C171.89 55.3475 174 47.6552 174 39.7862C174 34.5614 173.069 29.3878 171.261 24.5607C169.453 19.7336 166.802 15.3476 163.461 11.6531C160.119 7.95863 156.153 5.02799 151.787 3.02855C147.421 1.0291 142.742 0 138.017 0Z" fill="#EB5757"/>
</svg>
