<svg width="859" height="440" viewBox="0 0 859 440" fill="none" xmlns="http://www.w3.org/2000/svg">
<path d="M723.922 436.448C646.793 408.742 657.085 325.366 675.086 278.238C677.075 273.034 683.118 270.785 687.808 273.792C716.994 292.502 756.331 342.32 735.948 429.771C734.694 435.15 729.119 438.315 723.922 436.448Z" fill="#9AE6BE"/>
<path d="M855.884 248.714C828.699 326.028 745.255 316.298 698.007 298.614C692.789 296.661 690.5 290.633 693.476 285.922C711.988 256.611 761.54 216.94 849.127 236.733C854.514 237.951 857.716 243.504 855.884 248.714Z" fill="#247D4E"/>
<path d="M180.722 48.4039C153.537 125.718 70.0938 115.988 22.846 98.3039C17.6278 96.3508 15.3388 90.323 18.3141 85.6122C36.827 56.3012 86.3787 16.6295 173.965 36.4229C179.352 37.6403 182.554 43.1938 180.722 48.4039Z" fill="#247D4E"/>
<path d="M342.394 346.619C265.265 318.913 275.557 235.537 293.559 188.41C295.547 183.205 301.59 180.957 306.281 183.964C335.467 202.673 374.804 252.491 354.421 339.943C353.167 345.321 347.592 348.486 342.394 346.619Z" fill="#247D4E"/>
<path d="M611.709 356.431C531.16 371.545 497.865 294.416 489.556 244.656C488.638 239.161 492.714 234.164 498.281 234.386C532.922 235.763 592.054 258.84 618.706 344.589C620.345 349.863 617.137 355.413 611.709 356.431Z" fill="#9AE6BE"/>
<path d="M227.632 250.084C147.084 265.198 113.789 188.069 105.48 138.309C104.562 132.813 108.638 127.817 114.205 128.038C148.845 129.415 207.978 152.493 234.63 238.242C236.269 243.516 233.061 249.066 227.632 250.084Z" fill="#9AE6BE"/>
<path d="M504.708 87.9602C424.16 72.8463 390.865 149.976 382.555 199.735C381.638 205.231 385.713 210.227 391.281 210.006C425.921 208.629 485.054 185.551 511.706 99.8025C513.345 94.5285 510.136 88.9787 504.708 87.9602Z" fill="#9AE6BE"/>
<rect x="-22.4942" y="79.8601" width="763" height="29" rx="14.5" transform="rotate(15 -22.4942 79.8601)" fill="#247D4E"/>
</svg>
