<svg width="759" height="536" viewBox="0 0 759 536" fill="none" xmlns="http://www.w3.org/2000/svg">
<path d="M8.89529 300.765C83.0244 265.817 134.703 332.051 155.298 378.104C157.572 383.19 154.889 389.053 149.446 390.244C115.579 397.651 52.5367 390.24 5.11221 313.99C2.19538 309.3 3.89977 303.12 8.89529 300.765Z" fill="#9AE6BE"/>
<path d="M48.3311 526.824C12.8848 452.932 78.7685 400.809 124.682 379.904C129.753 377.595 135.634 380.239 136.861 385.674C144.496 419.49 137.51 482.581 61.581 530.518C56.911 533.466 50.7199 531.804 48.3311 526.824Z" fill="#247D4E"/>
<path d="M667.383 191.054C631.937 117.162 697.82 65.0384 743.734 44.1335C748.805 41.8247 754.686 44.4684 755.913 49.9034C763.548 83.7199 756.562 146.81 680.633 194.748C675.963 197.696 669.772 196.033 667.383 191.054Z" fill="#247D4E"/>
<path d="M342.194 94.503C416.323 59.5553 468.001 125.789 488.596 171.842C490.871 176.928 488.188 182.791 482.745 183.982C448.877 191.389 385.836 183.978 338.411 107.728C335.494 103.038 337.199 96.8581 342.194 94.503Z" fill="#247D4E"/>
<path d="M144.822 277.999C191.091 210.355 269.173 241.351 310.234 270.66C314.769 273.898 315.42 280.312 311.326 284.093C285.858 307.613 227.727 333.108 148.248 291.32C143.359 288.75 141.704 282.557 144.822 277.999Z" fill="#9AE6BE"/>
<path d="M491.603 81.6146C537.873 13.9712 615.954 44.9666 657.015 74.2764C661.55 77.5135 662.201 83.9284 658.108 87.7086C632.64 111.229 574.509 136.724 495.029 94.9363C490.141 92.3661 488.485 86.1731 491.603 81.6146Z" fill="#9AE6BE"/>
<path d="M410.32 392.176C477.964 345.907 446.968 267.825 417.658 226.764C414.421 222.229 408.006 221.578 404.226 225.671C380.705 251.139 355.21 309.27 396.999 388.75C399.569 393.638 405.762 395.294 410.32 392.176Z" fill="#9AE6BE"/>
<rect x="788.836" y="25.1147" width="763" height="29" rx="14.5" transform="rotate(150 788.836 25.1147)" fill="#247D4E"/>
</svg>
