<svg width="869" height="294" viewBox="0 0 869 294" fill="none" xmlns="http://www.w3.org/2000/svg">
<path d="M44.0659 55.6394C124.714 41.0685 157.489 118.42 165.463 168.235C166.344 173.737 162.234 178.705 156.669 178.446C122.038 176.836 63.0624 153.361 36.9889 67.4343C35.3853 62.1494 38.6311 56.6213 44.0659 55.6394Z" fill="#9AE6BE"/>
<path d="M23.6499 284.202C8.53598 203.654 85.6652 170.359 135.425 162.049C140.921 161.132 145.917 165.208 145.696 170.775C144.318 205.415 121.241 264.548 35.4922 291.2C30.2182 292.839 24.6684 289.63 23.6499 284.202Z" fill="#247D4E"/>
<path d="M708.512 120.095C693.398 39.547 770.527 6.2518 820.287 -2.05749C825.783 -2.97519 830.779 1.10056 830.558 6.66789C829.18 41.3084 806.103 100.441 720.354 127.093C715.08 128.732 709.53 125.523 708.512 120.095Z" fill="#247D4E"/>
<path d="M419.393 -57.3304C500.041 -71.9012 532.816 5.45056 540.79 55.2651C541.67 60.7668 537.561 65.7355 531.995 65.4767C497.365 63.8662 438.389 40.3911 412.316 -45.5355C410.712 -50.8204 413.958 -56.3484 419.393 -57.3304Z" fill="#247D4E"/>
<path d="M181.253 68.829C243.453 15.4658 310.853 65.6141 342.928 104.553C346.471 108.853 345.44 115.218 340.507 117.81C309.819 133.938 247.07 143.518 181.115 82.5834C177.058 78.8356 177.062 72.4251 181.253 68.829Z" fill="#9AE6BE"/>
<path d="M567.047 -31.1096C629.247 -84.4728 696.646 -34.3245 728.722 4.61399C732.264 8.91449 731.233 15.2793 726.301 17.8713C695.612 33.9989 632.864 43.5797 566.908 -17.3552C562.851 -21.103 562.855 -27.5135 567.047 -31.1096Z" fill="#9AE6BE"/>
<path d="M408.154 247.832C485.468 220.646 475.738 137.203 458.054 89.9552C456.101 84.737 450.073 82.448 445.362 85.4233C416.051 103.936 376.38 153.488 396.173 241.075C397.39 246.462 402.944 249.664 408.154 247.832Z" fill="#9AE6BE"/>
<rect x="868.775" y="-8.75485" width="763" height="29" rx="14.5" transform="rotate(165 868.775 -8.75485)" fill="#247D4E"/>
</svg>
