<svg width="150" height="150" viewBox="0 0 150 150" fill="none" xmlns="http://www.w3.org/2000/svg">
<path d="M75 0C60.1664 0 45.6659 4.39867 33.3323 12.6398C20.9986 20.8809 11.3856 32.5943 5.70907 46.2987C0.0324963 60.0032 -1.45275 75.0832 1.44114 89.6318C4.33503 104.18 11.4781 117.544 21.967 128.033C32.456 138.522 45.8197 145.665 60.3683 148.559C74.9168 151.453 89.9968 149.968 103.701 144.291C117.406 138.614 129.119 129.001 137.36 116.668C145.601 104.334 150 89.8336 150 75C150 65.1508 148.06 55.3981 144.291 46.2987C140.522 37.1993 134.997 28.9314 128.033 21.967C121.069 15.0026 112.801 9.47814 103.701 5.70903C94.6019 1.93993 84.8492 0 75 0ZM82.5 105C82.5 106.989 81.7098 108.897 80.3033 110.303C78.8968 111.71 76.9891 112.5 75 112.5C73.0109 112.5 71.1032 111.71 69.6967 110.303C68.2902 108.897 67.5 106.989 67.5 105V67.5C67.5 65.5109 68.2902 63.6032 69.6967 62.1967C71.1032 60.7902 73.0109 60 75 60C76.9891 60 78.8968 60.7902 80.3033 62.1967C81.7098 63.6032 82.5 65.5109 82.5 67.5V105ZM75 52.5C73.5167 52.5 72.0666 52.0601 70.8332 51.236C69.5999 50.4119 68.6386 49.2406 68.0709 47.8701C67.5033 46.4997 67.3547 44.9917 67.6441 43.5368C67.9335 42.082 68.6478 40.7456 69.6967 39.6967C70.7456 38.6478 72.082 37.9335 73.5368 37.6441C74.9917 37.3547 76.4997 37.5032 77.8701 38.0709C79.2406 38.6386 80.4119 39.5998 81.236 40.8332C82.0602 42.0666 82.5 43.5166 82.5 45C82.5 46.9891 81.7098 48.8968 80.3033 50.3033C78.8968 51.7098 76.9891 52.5 75 52.5Z" fill="#F7FAFC"/>
</svg>
