<svg width="183" height="152" viewBox="0 0 183 152" fill="none" xmlns="http://www.w3.org/2000/svg">
<path fill-rule="evenodd" clip-rule="evenodd" d="M110.425 9.06376C115.279 2.56138 123.558 -2.2878 131.472 1.12333C134.912 2.60638 138.249 4.2532 141.438 6.07743C145.551 8.43091 147.485 12.3362 147.9 16.6057C148.312 20.8471 147.238 25.4919 145.319 29.5423C142.133 36.2686 142.015 42.6623 145.056 47.761C148.502 53.5397 156.239 56.6864 166.144 57.0852C174.078 57.4048 182.186 62.0046 182.719 70.4407C182.826 72.1454 182.881 73.8415 182.881 75.4895C182.881 77.037 182.833 78.5848 182.738 80.1321C182.21 88.7339 173.848 93.523 165.755 93.9104C156.034 94.3757 148.457 97.5164 145.056 103.218C145.05 103.228 145.043 103.239 145.037 103.248C142.088 107.812 142.12 114.12 145.141 120.861C147.019 125.052 148.033 129.866 147.559 134.266C147.082 138.688 145.088 142.745 140.92 145.211C137.708 147.111 134.382 148.822 130.944 150.315C123.266 153.649 115.382 148.774 110.798 142.423C105.557 135.163 98.7791 130.922 91.4404 130.922C84.2744 130.922 77.6445 134.964 72.4561 141.914C67.602 148.417 59.3228 153.266 51.4092 149.855C47.9686 148.372 44.632 146.725 41.4434 144.901C37.3295 142.547 35.3944 138.643 34.9795 134.373C34.5675 130.132 35.6419 125.487 37.5605 121.437C40.7469 114.711 40.8653 108.317 37.8242 103.218C34.3775 97.4395 26.6408 94.2917 16.7363 93.8929C8.80165 93.5732 0.69381 88.9737 0.161133 80.5374C0.053531 78.833 6.80983e-06 77.1373 0 75.4895C1.20848e-05 73.2684 0.0975407 70.9544 0.329102 68.6438C0.713046 64.8142 2.81471 61.9273 5.71387 60.0149C8.59344 58.1156 12.2677 57.165 15.9219 57.1253C26.5607 57.0098 34.9487 53.8458 38.5781 47.761L38.5977 47.7298C41.6235 43.0459 41.5093 36.5217 38.248 29.5843C36.3411 25.5275 35.2776 20.8657 35.6895 16.5999C36.1039 12.3081 38.0256 8.36903 42.1113 5.97196C45.0933 4.2225 48.2031 2.63643 51.4268 1.20243C59.3106 -2.30429 67.6049 2.56524 72.4561 9.06376C77.6445 16.0142 84.2742 20.0569 91.4404 20.0569C98.6066 20.0568 105.236 16.0142 110.425 9.06376ZM91.4404 54.0774C78.4997 54.0775 67.8301 63.5703 67.8301 75.4895C67.8301 87.4089 78.4997 96.9016 91.4404 96.9016C104.381 96.9015 115.05 87.4088 115.05 75.4895C115.05 63.5703 104.381 54.0776 91.4404 54.0774Z" fill="#F7FAFC"/>
</svg>
