<svg width="138" height="138" viewBox="0 0 138 138" fill="none" xmlns="http://www.w3.org/2000/svg">
<path d="M133.18 25.8208C139.038 19.963 139.038 10.4655 133.18 4.60764L132.966 4.39335C127.108 -1.46451 117.611 -1.46452 111.753 4.39334L79.3935 36.7526C73.5356 42.6105 64.0381 42.6105 58.1803 36.7526L25.821 4.39335C19.9631 -1.46452 10.4656 -1.46452 4.60777 4.39334L4.39347 4.60763C-1.46439 10.4655 -1.4644 19.963 4.39347 25.8208L36.7528 58.1801C42.6106 64.038 42.6106 73.5355 36.7528 79.3933L4.39347 111.753C-1.46439 117.611 -1.4644 127.108 4.39347 132.966L4.60776 133.18C10.4656 139.038 19.9631 139.038 25.821 133.18L58.1803 100.821C64.0381 94.963 73.5356 94.963 79.3935 100.821L111.753 133.18C117.611 139.038 127.108 139.038 132.966 133.18L133.18 132.966C139.038 127.108 139.038 117.611 133.18 111.753L100.821 79.3933C94.9631 73.5355 94.9631 64.038 100.821 58.1801L133.18 25.8208Z" fill="#F7FAFC"/>
</svg>
