<svg width="197" height="150" viewBox="0 0 197 150" fill="none" xmlns="http://www.w3.org/2000/svg">
<path d="M65.1992 58.6573C62.7565 63.582 61.3809 69.1303 61.3809 75.0001C61.381 95.3396 77.8695 111.828 98.209 111.828C104.079 111.828 109.626 110.452 114.551 108.009L141.925 135.383C129.123 143.945 113.94 148.656 98.209 148.656C74.8733 148.656 52.7429 138.292 37.8037 120.364L0 75.0001L37.0635 30.5216L65.1992 58.6573ZM98.209 1.3429C121.545 1.3429 143.675 11.7079 158.615 29.6349L196.419 75.0001L159.354 119.478L131.219 91.3429C133.662 86.4181 135.038 80.8702 135.038 75.0001C135.038 54.6604 118.549 38.171 98.209 38.171C92.3388 38.1711 86.7901 39.5463 81.8652 41.9894L54.4922 14.6163C67.2942 6.05403 82.4775 1.34295 98.209 1.3429Z" fill="#F7FAFC"/>
<path d="M101.98 95.4382C100.758 95.6622 99.4989 95.781 98.2119 95.781C86.7359 95.781 77.4327 86.4777 77.4326 75.0017C77.4326 73.7143 77.5493 72.4539 77.7734 71.2312L101.98 95.4382ZM98.2119 54.2224C109.688 54.2224 118.991 63.5256 118.991 75.0017C118.991 76.2897 118.873 77.55 118.648 78.7732L94.4395 54.5642C95.6629 54.3398 96.9237 54.2224 98.2119 54.2224Z" fill="#F7FAFC"/>
<rect x="23.2122" y="11.1111" width="15.7135" height="196.419" rx="7.85674" transform="rotate(-45 23.2122 11.1111)" fill="#F7FAFC"/>
</svg>
