<svg width="200" height="150" viewBox="0 0 200 150" fill="none" xmlns="http://www.w3.org/2000/svg">
<path fill-rule="evenodd" clip-rule="evenodd" d="M0 75L38.4931 28.8082C53.7048 10.5542 76.2386 0 100 0C123.761 0 146.295 10.5542 161.507 28.8082L200 75L161.507 121.191C146.295 139.446 123.761 150 100 150C76.2386 150 53.7048 139.446 38.4931 121.191L0 75ZM100 112.5C120.711 112.5 137.5 95.7106 137.5 75C137.5 54.2894 120.711 37.5 100 37.5C79.2894 37.5 62.5 54.2894 62.5 75C62.5 95.7106 79.2894 112.5 100 112.5Z" fill="#F7FAFC"/>
<circle cx="99.9985" cy="75.0002" r="21.1582" fill="#F7FAFC"/>
</svg>
