<svg width="317" height="1821" viewBox="0 0 317 1821" fill="none" xmlns="http://www.w3.org/2000/svg">
<path d="M165.91 1376.96C130.464 1450.85 196.348 1502.98 242.261 1523.88C247.332 1526.19 253.213 1523.55 254.44 1518.11C262.075 1484.29 255.089 1421.2 179.16 1373.27C174.49 1370.32 168.299 1371.98 165.91 1376.96Z" fill="#9AE6BE"/>
<path d="M146.077 1047.57C64.3613 1053.82 52.1631 1136.94 57.0157 1187.15C57.5516 1192.7 62.7816 1196.47 68.102 1194.82C101.206 1184.52 152.351 1146.93 155.901 1057.2C156.119 1051.68 151.584 1047.15 146.077 1047.57Z" fill="#9AE6BE"/>
<path d="M146.515 707.489C69.201 734.674 78.9311 818.117 96.6149 865.365C98.5679 870.583 104.596 872.872 109.307 869.897C138.618 851.384 178.289 801.832 158.496 714.246C157.278 708.859 151.725 705.657 146.515 707.489Z" fill="#9AE6BE"/>
<path d="M159.436 283.013C85.5443 247.566 33.421 313.45 12.5161 359.364C10.2073 364.435 12.8511 370.316 18.286 371.543C52.1025 379.178 115.193 372.192 163.13 296.263C166.078 291.593 164.416 285.402 159.436 283.013Z" fill="#9AE6BE"/>
<path d="M149.276 1651.07C95.9124 1713.27 146.061 1780.67 184.999 1812.75C189.3 1816.29 195.665 1815.26 198.257 1810.33C214.384 1779.64 223.965 1716.89 163.03 1650.94C159.282 1646.88 152.872 1646.88 149.276 1651.07Z" fill="#9AE6BE"/>
<rect x="170.596" y="-88.3013" width="1753" height="29" rx="14.5" transform="rotate(90 170.596 -88.3013)" fill="#3BB273"/>
<rect x="170.596" y="-88.3013" width="1753" height="29" rx="14.5" transform="rotate(90 170.596 -88.3013)" fill="#247D4E"/>
<path d="M34.8569 1751.52C19.7431 1670.97 96.8723 1637.67 146.632 1629.36C152.128 1628.45 157.124 1632.52 156.903 1638.09C155.525 1672.73 132.448 1731.86 46.6993 1758.51C41.4253 1760.15 35.8755 1756.94 34.8569 1751.52Z" fill="#247D4E"/>
<path d="M162.125 1264.9C155.876 1346.61 72.7578 1358.81 22.543 1353.96C16.9971 1353.42 13.226 1348.19 14.8807 1342.87C25.1765 1309.77 62.772 1258.62 152.497 1255.07C158.016 1254.85 162.546 1259.39 162.125 1264.9Z" fill="#247D4E"/>
<path d="M309.265 978.919C247.065 1032.28 179.666 982.134 147.59 943.196C144.048 938.895 145.079 932.53 150.011 929.938C180.699 913.811 243.448 904.23 309.404 965.165C313.46 968.913 313.457 975.323 309.265 978.919Z" fill="#247D4E"/>
<path d="M71.5063 776.472C36.06 702.58 101.944 650.457 147.857 629.552C152.928 627.243 158.809 629.887 160.036 635.322C167.672 669.138 160.685 732.229 84.7562 780.166C80.0862 783.114 73.8951 781.451 71.5063 776.472Z" fill="#247D4E"/>
<path d="M2.95442 42.3026C30.1396 -35.0112 113.583 -25.2811 160.831 -7.59733C166.049 -5.64427 168.338 0.383582 165.363 5.09437C146.85 34.4054 97.2982 74.077 9.71148 54.2836C4.32449 53.0662 1.12243 47.5127 2.95442 42.3026Z" fill="#247D4E"/>
<path d="M159.256 422.839C239.804 407.725 273.099 484.854 281.409 534.614C282.326 540.11 278.251 545.106 272.683 544.885C238.043 543.508 178.91 520.43 152.258 434.681C150.619 429.407 153.828 423.857 159.256 422.839Z" fill="#247D4E"/>
<path d="M159.5 71.0724C241.216 77.321 253.414 160.44 248.561 210.654C248.025 216.2 242.795 219.971 237.475 218.317C204.371 208.021 153.226 170.425 149.676 80.7001C149.458 75.1816 153.993 70.6513 159.5 71.0724Z" fill="#247D4E"/>
</svg>
