<svg width="214" height="150" viewBox="0 0 214 150" fill="none" xmlns="http://www.w3.org/2000/svg">
<path d="M209.534 23.4315C208.315 18.8942 205.927 14.7565 202.607 11.4324C199.288 8.10829 195.153 5.71446 190.618 4.49045C173.923 9.11154e-07 107 0 107 0C107 0 40.0772 -9.11154e-07 23.3824 4.46656C18.8449 5.6866 14.7083 8.07911 11.388 11.4038C8.06768 14.7285 5.68054 18.8684 4.46629 23.4076C-9.111e-07 40.1274 0 75 0 75C0 75 -9.111e-07 109.873 4.46629 126.568C6.92634 135.788 14.1871 143.049 23.3824 145.51C40.0772 150 107 150 107 150C107 150 173.923 150 190.618 145.51C199.837 143.049 207.074 135.788 209.534 126.568C214 109.873 214 75 214 75C214 75 214 40.1274 209.534 23.4315ZM85.7433 107.006V42.9936L141.154 74.7611L85.7433 107.006Z" fill="#F7FAFC"/>
</svg>
