<svg width="253" height="150" viewBox="0 0 253 150" fill="none" xmlns="http://www.w3.org/2000/svg">
<path d="M247.199 10.158C248.967 4.2976 247.199 0 238.841 0H211.153C204.108 0 200.888 3.71787 199.12 7.80122C199.12 7.80122 185.043 42.0686 165.094 64.2875C158.655 70.7528 155.713 72.7945 152.203 72.7945C150.448 72.7945 147.898 70.7528 147.898 64.8925V10.158C147.898 3.12553 145.865 0 139.994 0H96.4858C92.0921 0 89.4407 3.25156 89.4407 6.35188C89.4407 13.0062 99.415 14.5438 100.438 33.2969V73.9792C100.438 82.8894 98.8342 84.5152 95.299 84.5152C85.9181 84.5152 63.0908 50.1218 49.5434 10.7503C46.9046 3.10032 44.2406 0.012608 37.1701 0.012608H9.49455C1.57822 0.012608 0 3.73047 0 7.81382C0 15.1487 9.38092 51.4451 43.6977 99.4497C66.5755 132.23 98.7837 150 128.126 150C145.714 150 147.885 146.055 147.885 139.25V114.472C147.885 106.583 149.564 104.995 155.132 104.995C159.223 104.995 166.268 107.062 182.694 122.853C201.456 141.581 204.562 149.987 215.105 149.987H242.78C250.684 149.987 254.636 146.043 252.363 138.254C249.876 130.503 240.912 119.224 229.018 105.877C222.554 98.265 212.895 90.0731 209.953 85.9771C205.85 80.6965 207.037 78.365 209.953 73.6767C209.966 73.6893 243.689 26.2771 247.199 10.158Z" fill="#F7FAFC"/>
</svg>
