<svg width="154" height="150" viewBox="0 0 154 150" fill="none" xmlns="http://www.w3.org/2000/svg">
<path d="M77.0086 6.44587e-06C34.4612 -0.0172072 0 34.4446 0 76.9796C0 110.615 21.5576 139.207 51.5799 149.707C55.6231 150.723 55.0037 147.848 55.0037 145.886V132.545C31.6568 135.282 30.7105 119.824 29.1449 117.242C25.9792 111.837 18.4951 110.46 20.7318 107.878C26.048 105.141 31.4675 108.567 37.7473 117.845C42.2894 124.575 51.1498 123.439 55.6403 122.32C56.6209 118.275 58.7199 114.66 61.6103 111.854C37.4204 107.517 27.3384 92.7473 27.3384 75.1894C27.3384 66.6686 30.1428 58.8364 35.6483 52.5189C32.1385 42.1047 35.9752 33.188 36.4913 31.8625C46.4873 30.9674 56.879 39.0234 57.6876 39.6603C63.3652 38.1283 69.8514 37.3193 77.1118 37.3193C84.4067 37.3193 90.9101 38.1627 96.6393 39.712C98.5834 38.2316 108.218 31.3117 117.509 32.1552C118.008 33.4806 121.758 42.1907 118.455 52.4673C124.029 58.8019 126.868 66.703 126.868 75.241C126.868 92.8334 116.717 107.62 92.4585 111.889C94.5363 113.933 96.1862 116.372 97.3116 119.061C98.4371 121.751 99.0157 124.638 99.0135 127.553V146.919C99.1512 148.468 99.0135 150 101.594 150C132.064 139.723 154 110.925 154 76.9968C154 34.4446 119.522 6.44587e-06 77.0086 6.44587e-06Z" fill="#F7FAFC"/>
</svg>
