<svg width="180" height="150" viewBox="0 0 180 150" fill="none" xmlns="http://www.w3.org/2000/svg">
<path d="M164.654 1.32424C164.654 1.32424 181.306 -5.16861 179.918 10.5998C179.455 17.0927 175.293 39.8177 172.055 64.3979L160.954 137.211C160.954 137.211 160.029 147.878 151.703 149.733C143.377 151.588 130.889 143.24 128.576 141.385C126.726 139.994 93.8863 119.123 82.3226 108.92C79.0848 106.138 75.3845 100.572 82.785 94.0795L131.352 47.7021C136.902 42.1367 142.453 29.151 119.326 44.9194L54.5705 88.9782C54.5705 88.9782 47.1699 93.6158 33.294 89.4419L3.22895 80.1664C3.22895 80.1664 -7.87196 73.2098 11.0921 66.2528C57.3459 44.4553 114.238 22.194 164.654 1.32424Z" fill="#F7FAFC"/>
</svg>
