<svg width="112" height="150" viewBox="0 0 112 150" fill="none" xmlns="http://www.w3.org/2000/svg">
<path d="M97.3912 57.1913H94.2866V39.6232C94.2866 17.7742 77.1124 0 56.0004 0C34.8904 0 17.7155 17.7742 17.7155 39.6232V57.1913H14.6088C6.54096 57.1913 0 63.96 0 72.3105V119.252C0 136.234 13.3008 150 29.709 150H82.291C98.6992 150 112 136.234 112 119.252V72.3105C112 63.96 105.46 57.1913 97.3912 57.1913ZM61.4398 103.909V123.005C61.4398 126.114 59.0042 128.635 56.0004 128.635C52.9966 128.635 50.5609 126.114 50.5609 123.005V103.909C46.4172 101.818 43.5554 97.4295 43.5554 92.3378C43.5554 85.2248 49.1275 79.4572 56.0004 79.4572C62.8739 79.4572 68.446 85.224 68.446 92.3378C68.446 97.4295 65.5828 101.818 61.4398 103.909ZM80.4409 57.1913H31.5627V39.6232C31.5627 25.6762 42.5256 14.3295 56.0011 14.3295C69.4779 14.3295 80.4409 25.6762 80.4409 39.6232V57.1913Z" fill="#F7FAFC"/>
</svg>
