<svg width="130" height="155" viewBox="0 0 130 155" fill="none" xmlns="http://www.w3.org/2000/svg">
<path d="M127.498 10.2299C127.497 9.98427 127.483 9.73897 127.457 9.494C127.444 9.37498 127.419 9.25943 127.4 9.14199C127.378 9.00908 127.361 8.87554 127.331 8.74358C127.302 8.61193 127.261 8.48439 127.225 8.35527C127.192 8.23878 127.163 8.12197 127.124 8.00674C127.081 7.88109 127.028 7.76018 126.979 7.63737C126.932 7.52119 126.889 7.40407 126.836 7.28978C126.782 7.17519 126.72 7.06564 126.66 6.95388C126.598 6.83612 126.539 6.71711 126.47 6.60156C126.406 6.49517 126.333 6.39446 126.264 6.29091C126.187 6.17695 126.114 6.06139 126.031 5.95028C125.947 5.8382 125.853 5.73339 125.763 5.62571C125.683 5.53037 125.608 5.43282 125.523 5.34032C125.352 5.15532 125.171 4.97853 124.982 4.80868C124.97 4.797 124.959 4.78405 124.946 4.77238C124.932 4.76038 124.918 4.75091 124.904 4.73923C124.713 4.57127 124.514 4.41111 124.307 4.25873C124.205 4.18455 124.098 4.12014 123.994 4.05069C123.871 3.96858 123.75 3.88337 123.621 3.80694C123.499 3.7337 123.371 3.67056 123.245 3.60363C123.127 3.5405 123.011 3.4742 122.888 3.41613C122.763 3.35615 122.633 3.30564 122.505 3.25166C122.375 3.19703 122.247 3.13926 122.114 3.09033C121.991 3.04487 121.865 3.00856 121.74 2.96847C121.597 2.92238 121.455 2.87376 121.308 2.83399C121.185 2.80116 121.06 2.77716 120.936 2.74906C120.785 2.71465 120.635 2.67709 120.48 2.64994C120.341 2.62563 120.202 2.61142 120.062 2.59311C119.92 2.57448 119.78 2.55112 119.636 2.5385C119.394 2.51735 119.152 2.50914 118.909 2.50566C118.865 2.50537 118.823 2.5 118.779 2.5H92.6163C90.3033 2.5 88.0851 3.31742 86.4496 4.77245C84.8141 6.22747 83.8953 8.20091 83.8953 10.2586C83.8953 12.3163 84.8141 14.2898 86.4496 15.7448C88.0851 17.1998 90.3033 18.0172 92.6163 18.0172H97.7248L86.7865 27.7487C80.4949 23.4244 73.178 20.4329 65.3919 19.0017C57.6059 17.5704 49.5555 17.7371 41.8527 19.4889C34.1499 21.2407 26.9972 24.5316 20.9384 29.1115C14.8796 33.6914 10.074 39.4398 6.88686 45.9198C3.6997 52.3999 2.21486 59.441 2.54516 66.5081C2.87547 73.5752 5.01223 80.4824 8.79307 86.7046C12.5739 92.9269 17.8993 98.3005 24.3646 102.417C30.8299 106.534 38.2649 109.285 46.1046 110.462V118.879H31.5697C29.2568 118.879 27.0386 119.697 25.4031 121.152C23.7676 122.607 22.8488 124.58 22.8488 126.638C22.8488 128.696 23.7676 130.669 25.4031 132.124C27.0386 133.579 29.2568 134.397 31.5697 134.397H46.1046V144.741C46.1046 146.799 47.0234 148.773 48.6589 150.228C50.2944 151.683 52.5126 152.5 54.8255 152.5C57.1385 152.5 59.3567 151.683 60.9922 150.228C62.6277 148.773 63.5465 146.799 63.5465 144.741V134.397H78.0814C80.3943 134.397 82.6125 133.579 84.248 132.124C85.8835 130.669 86.8023 128.696 86.8023 126.638C86.8023 124.58 85.8835 122.607 84.248 121.152C82.6125 119.697 80.3943 118.879 78.0814 118.879H63.5465V110.462C72.1096 109.181 80.1792 106.022 87.0262 101.271C93.8733 96.52 99.2821 90.3263 102.764 83.2494C106.246 76.1725 107.692 68.4354 106.97 60.7369C106.249 53.0384 103.383 45.6211 98.6321 39.1549L110.058 28.9897V33.5345C110.058 35.5922 110.977 37.5656 112.612 39.0207C114.248 40.4757 116.466 41.2931 118.779 41.2931C121.092 41.2931 123.31 40.4757 124.946 39.0207C126.581 37.5656 127.5 35.5922 127.5 33.5345V10.2586C127.5 10.2488 127.498 10.2394 127.498 10.2299ZM54.8255 95.6034C47.9262 95.6034 41.1818 93.7833 35.4452 90.3732C29.7086 86.9631 25.2374 82.1162 22.5972 76.4454C19.9569 70.7745 19.2661 64.5345 20.6121 58.5144C21.9581 52.4943 25.2804 46.9645 30.159 42.6243C35.0376 38.284 41.2533 35.3283 48.0201 34.1308C54.7868 32.9333 61.8008 33.5479 68.175 35.8968C74.5491 38.2458 79.9972 42.2235 83.8303 47.3271C87.6634 52.4307 89.7093 58.4309 89.7093 64.569C89.6988 72.797 86.0201 80.6853 79.4805 86.5033C72.9408 92.3214 64.0741 95.5941 54.8255 95.6034Z" fill="#F7FAFC" stroke="#F7FAFC" stroke-width="5"/>
</svg>
