<svg width="147" height="150" viewBox="0 0 147 150" fill="none" xmlns="http://www.w3.org/2000/svg">
<path d="M81.9807 98.7621C81.9807 81.7833 68.2167 68.0193 51.2379 68.0193C34.2592 68.0193 20.4952 81.7833 20.4952 98.7621C20.4952 115.741 34.2592 129.505 51.2379 129.505V150C22.94 150 0 127.06 0 98.7621C2.11267e-06 70.4642 22.94 47.5242 51.2379 47.5242C79.5359 47.5242 102.476 70.4642 102.476 98.7621C102.476 127.06 79.5359 150 51.2379 150V129.505C68.2167 129.505 81.9807 115.741 81.9807 98.7621Z" fill="#F7FAFC"/>
<path d="M124.498 7.24613C128.499 3.2442 134.988 3.2442 138.99 7.24613C142.992 11.2481 142.992 17.7365 138.99 21.7384L91.9469 68.7813C87.9449 72.7832 81.4565 72.7832 77.4546 68.7813C73.4527 64.7794 73.4527 58.291 77.4546 54.289L124.498 7.24613Z" fill="#F7FAFC"/>
<path d="M131.595 4.19897C137.255 4.19897 141.843 8.78697 141.843 14.4466C141.843 20.1061 137.255 24.6941 131.595 24.6941L90.6051 24.6941C84.9455 24.6941 80.3575 20.1061 80.3575 14.4466C80.3575 8.78697 84.9455 4.19897 90.6051 4.19897L131.595 4.19897Z" fill="#F7FAFC"/>
<path d="M141.843 55.437C141.843 61.0966 137.255 65.6846 131.595 65.6846C125.936 65.6846 121.348 61.0966 121.348 55.437L121.348 14.4467C121.348 8.78708 125.936 4.19909 131.595 4.19909C137.255 4.19909 141.843 8.78708 141.843 14.4467L141.843 55.437Z" fill="#F7FAFC"/>
</svg>
