<svg width="150" height="150" viewBox="0 0 150 150" fill="none" xmlns="http://www.w3.org/2000/svg">
<path fill-rule="evenodd" clip-rule="evenodd" d="M75 37.5C54.2893 37.5 37.5 54.2893 37.5 75C37.5 95.7103 54.2893 112.5 75 112.5C95.7103 112.5 112.5 95.7103 112.5 75C112.5 54.2893 95.7103 37.5 75 37.5ZM56.25 75C56.25 64.6447 64.6447 56.25 75 56.25C85.3553 56.25 93.75 64.6447 93.75 75C93.75 85.3553 85.3553 93.75 75 93.75C64.6447 93.75 56.25 85.3553 56.25 75Z" fill="#F7FAFC"/>
<path fill-rule="evenodd" clip-rule="evenodd" d="M75 0C33.5786 0 0 33.5786 0 75C0 116.422 33.5786 150 75 150C116.422 150 150 116.422 150 75C150 33.5786 116.422 0 75 0ZM18.75 75C18.75 43.934 43.934 18.75 75 18.75C106.066 18.75 131.25 43.934 131.25 75C131.25 106.066 106.066 131.25 75 131.25C43.934 131.25 18.75 106.066 18.75 75Z" fill="#F7FAFC"/>
</svg>
