<svg width="147" height="147" viewBox="0 0 147 147" fill="none" xmlns="http://www.w3.org/2000/svg">
<path d="M89.7102 4.13383L4.13417 89.7098C-1.51625 95.3602 -1.35378 104.712 4.49576 110.561L36.3156 142.381C42.1651 148.231 51.5168 148.393 57.1672 142.743L142.743 57.1668C148.394 51.5164 148.231 42.1648 142.382 36.3152L110.562 4.49542C104.712 -1.35412 95.3606 -1.5166 89.7102 4.13383ZM49.3328 97.5442L39.6904 107.187L23.7805 91.2767L33.4229 81.6343L49.3328 97.5442ZM73.9208 83.5628L64.2784 93.2052L43.0652 71.992L52.7076 62.3496L73.9208 83.5628ZM87.9022 58.9748L78.2599 68.6171L62.35 52.7072L71.9923 43.0649L87.9022 58.9748ZM112.49 44.9933L102.848 54.6357L81.6347 33.4225L91.2771 23.7801L112.49 44.9933Z" fill="#F7FAFC"/>
</svg>
