<svg width="110" height="150" viewBox="0 0 110 150" fill="none" xmlns="http://www.w3.org/2000/svg">
<path d="M109.78 73.0339C109.437 72.016 108.836 71.0689 108.016 70.2545C107.195 69.4401 106.174 68.7768 105.02 68.308L73.988 55.7056L82.3181 8.52147C82.5919 6.88622 82.2 5.22259 81.203 3.78838C80.2061 2.35418 78.6597 1.22949 76.8035 0.588582C74.9474 -0.0523222 72.8851 -0.173648 70.9363 0.243404C68.9874 0.660456 67.2608 1.5926 66.0241 2.89539L1.94667 70.4084C1.07692 71.3186 0.475672 72.3813 0.189849 73.5133C-0.0959736 74.6454 -0.0586312 75.8163 0.298964 76.9347C0.703031 78.0535 1.40538 79.0847 2.35523 79.9539C3.30508 80.8231 4.47872 81.5085 5.79131 81.9606L44.8785 94.7881L36.5485 141.447C36.2653 143.122 36.6808 144.826 37.7276 146.283C38.7744 147.74 40.3911 148.864 42.3154 149.474C43.3882 149.838 44.5413 150.017 45.7024 149.999C47.2101 149.992 48.6926 149.681 50.018 149.092C51.3435 148.503 52.4709 147.655 53.3001 146.623L108.224 79.1101C108.997 78.247 109.536 77.2582 109.805 76.2101C110.073 75.1621 110.065 74.079 109.78 73.0339Z" fill="#F7FAFC"/>
</svg>
