<svg width="150" height="150" viewBox="0 0 150 150" fill="none" xmlns="http://www.w3.org/2000/svg">
<path d="M149.724 127.684L139.467 58.4171C137.777 49.0931 128.748 42.2402 118.15 42.2402H99.3578C89.623 42.2402 88.2372 38.0692 88.2372 33.1925C88.2372 28.1985 89.8346 26.4047 93.7125 25.9257C100.582 25.173 105.907 19.9605 105.907 13.6333V12.394C105.908 5.54854 99.6822 0 92.0027 0H57.9974C50.3176 0 44.0925 5.54854 44.0925 12.3938V13.633C44.0925 19.9603 49.4176 25.1725 56.2869 25.9254C60.1618 26.4044 61.7629 28.1982 61.7629 33.1922C61.7629 38.0689 60.3768 42.2399 50.642 42.2399H31.8501C21.2518 42.2399 12.2227 49.0928 10.5326 58.4168L0.276486 127.683C-0.732921 133.253 1.05055 138.937 5.15194 143.23C9.25301 147.526 15.2661 150 21.592 150H128.408C134.733 150 140.744 147.526 144.848 143.23C148.95 138.937 150.733 133.253 149.724 127.684Z" fill="#F7FAFC"/>
</svg>
