<svg width="100" height="150" viewBox="0 0 100 150" fill="none" xmlns="http://www.w3.org/2000/svg">
<path d="M79.7503 49.8439C79.7503 33.3271 66.3607 19.9376 49.8439 19.9376C33.3271 19.9376 19.9376 33.3271 19.9376 49.8439C19.9376 66.3607 33.3271 79.7503 49.8439 79.7503V99.6878C22.3159 99.6878 0 77.3719 0 49.8439C2.05519e-06 22.3159 22.3159 2.05525e-06 49.8439 0C77.372 0 99.6878 22.3159 99.6878 49.8439C99.6878 77.3719 77.372 99.6878 49.8439 99.6878V79.7503C66.3607 79.7503 79.7503 66.3607 79.7503 49.8439Z" fill="#F7FAFC"/>
<path d="M39.8752 100.156C39.8752 94.6504 44.3384 90.1873 49.844 90.1873C55.3496 90.1873 59.8128 94.6504 59.8128 100.156V140.031C59.8128 145.537 55.3496 150 49.844 150C44.3384 150 39.8752 145.537 39.8752 140.031V100.156Z" fill="#F7FAFC"/>
<path d="M59.8127 110.125C65.3183 110.125 69.7815 114.588 69.7815 120.094C69.7815 125.599 65.3183 130.062 59.8127 130.062L39.8751 130.062C34.3695 130.062 29.9064 125.599 29.9064 120.094C29.9064 114.588 34.3695 110.125 39.8751 110.125L59.8127 110.125Z" fill="#F7FAFC"/>
</svg>
