<svg width="150" height="150" viewBox="0 0 150 150" fill="none" xmlns="http://www.w3.org/2000/svg">
<path d="M150 44.3182V127.841C150 140.079 140.079 150 127.841 150H22.1591C9.92096 150 0 140.079 0 127.841V44.3182H150ZM39.1449 98.8733C34.4379 98.8733 30.6222 102.689 30.6222 107.396C30.6222 112.103 34.4379 115.919 39.1449 115.919C43.8519 115.919 47.6676 112.103 47.6676 107.396C47.6676 102.689 43.8519 98.8733 39.1449 98.8733ZM74.9709 98.8733C70.2639 98.8733 66.4482 102.689 66.4482 107.396C66.4482 112.103 70.2639 115.919 74.9709 115.919C79.6779 115.919 83.4936 112.103 83.4936 107.396C83.4936 102.689 79.6779 98.8733 74.9709 98.8733ZM39.1449 64.7823C34.4379 64.7823 30.6222 68.5981 30.6222 73.3051C30.6222 78.012 34.4379 81.8278 39.1449 81.8278C43.8519 81.8278 47.6676 78.012 47.6676 73.3051C47.6676 68.5981 43.8519 64.7823 39.1449 64.7823ZM74.9709 64.7823C70.2639 64.7823 66.4482 68.5981 66.4482 73.3051C66.4482 78.012 70.2639 81.8278 74.9709 81.8278C79.6779 81.8278 83.4936 78.012 83.4936 73.3051C83.4936 68.5981 79.6779 64.7823 74.9709 64.7823ZM110.797 64.7823C106.09 64.7823 102.274 68.5981 102.274 73.3051C102.274 78.012 106.09 81.8278 110.797 81.8278C115.504 81.8278 119.32 78.012 119.32 73.3051C119.32 68.5981 115.504 64.7823 110.797 64.7823ZM127.841 0C140.079 0 150 9.92096 150 22.1591V34.0909H0V22.1591C0 9.92096 9.92096 0 22.1591 0H127.841Z" fill="#F7FAFC"/>
</svg>
