<svg width="117" height="150" viewBox="0 0 117 150" fill="none" xmlns="http://www.w3.org/2000/svg">
<path d="M108.333 0C112.607 0 116.129 3.217 116.611 7.36149L116.667 8.33333V141.667C116.667 146.269 112.936 150 108.333 150C104.06 150 100.537 146.783 100.056 142.639L100 141.667V100H91.6667C87.393 100 83.8708 96.783 83.3894 92.6385L83.3333 91.6667V41.6667C83.3333 23.2572 95.8333 0 108.333 0ZM58.3333 0C62.607 0 66.1292 3.217 66.6106 7.36149L66.6667 8.33333V50C66.6667 65.5297 56.0467 78.579 41.673 82.2816L41.6667 141.667C41.6667 146.269 37.9357 150 33.3333 150C29.0597 150 25.5374 146.783 25.0561 142.639L25 141.667L25.002 82.2837C11.1566 78.7211 0.792121 66.4867 0.0433723 51.7153L0 50V8.33333C0 3.73096 3.73096 0 8.33333 0C12.607 0 16.1292 3.217 16.6106 7.36149L16.6667 8.33333V50C16.6667 56.1688 20.0181 61.5548 24.9994 64.4366L25 8.33333C25 3.73096 28.731 0 33.3333 0C37.607 0 41.1292 3.217 41.6106 7.36149L41.6667 8.33333L41.6756 64.4318C46.2695 61.7705 49.4753 56.9787 49.9414 51.4081L50 50V8.33333C50 3.73096 53.731 0 58.3333 0Z" fill="#F7FAFC"/>
</svg>
