<svg width="200" height="200" viewBox="0 0 200 200" fill="none" xmlns="http://www.w3.org/2000/svg">
<path fill-rule="evenodd" clip-rule="evenodd" d="M191.022 0.0440522C196.517 -0.504556 201.233 4.15257 199.702 9.45909C197.039 18.6919 190.588 24.6526 182.702 28.3556C189.222 35.9175 194.882 47.5183 196.397 64.5558C196.886 70.057 192.193 74.7492 186.916 73.1192C183.548 72.079 180.631 70.5099 178.109 68.5392V147.613C178.108 164.182 164.677 177.613 148.109 177.613H53.135C52.6096 177.613 52.0874 177.599 51.5686 177.572C45.3773 187.106 32.4619 197.61 8.9729 199.955C3.4775 200.504 -1.23831 195.848 0.292232 190.541C2.95527 181.308 9.40602 175.346 17.2913 171.643C10.7725 164.081 5.11385 152.48 3.59887 135.443C3.10988 129.942 7.80229 125.251 13.0793 126.881C17.0172 128.097 20.3409 130.034 23.135 132.494V50.8907C23.135 34.3223 36.5666 20.8909 53.135 20.8907H148.109C148.56 20.8907 149.008 20.9023 149.454 20.922C155.999 11.8156 168.763 2.2661 191.022 0.0440522ZM53.135 35.8907C44.8508 35.8909 38.135 42.6065 38.135 50.8907V147.613C38.1352 155.897 44.851 162.613 53.135 162.613H148.109C156.393 162.613 163.108 155.897 163.109 147.613V50.8907C163.109 42.6065 156.393 35.8907 148.109 35.8907H53.135ZM107.286 88.2696C110.048 88.2698 112.286 90.5083 112.286 93.2696V139.872C112.286 142.633 110.048 144.872 107.286 144.872H61.4651C58.7038 144.872 56.4653 142.633 56.4651 139.872V93.2696C56.4651 90.5082 58.7037 88.2696 61.4651 88.2696H107.286ZM138.947 123.752C141.708 123.752 143.947 125.991 143.947 128.752V139.872C143.947 142.634 141.708 144.872 138.947 144.872H128.117C125.356 144.872 123.117 142.634 123.117 139.872V128.752C123.117 125.991 125.356 123.752 128.117 123.752H138.947ZM94.2766 95.9493C93.8171 95.9534 93.367 96.1191 92.9963 96.421L73.7883 112.066C73.5281 112.276 73.3152 112.547 73.1663 112.857C73.0174 113.166 72.9366 113.506 72.9299 113.85C72.9335 114.196 73.0085 114.536 73.1506 114.843C73.2929 115.15 73.4987 115.418 73.7522 115.626L81.3538 121.655L75.9709 134.612C75.7814 135.078 75.742 135.594 75.8606 136.076C75.9794 136.559 76.2485 136.98 76.6243 137.271C76.8318 137.44 77.0723 137.56 77.3284 137.624C77.6595 137.712 78.0085 137.71 78.344 137.619C78.6797 137.528 78.9926 137.352 79.2532 137.104L96.4514 120.912C96.6868 120.71 96.881 120.457 97.0198 120.171C97.1585 119.885 97.239 119.571 97.2561 119.253C97.2583 118.939 97.1981 118.63 97.0803 118.347C96.9624 118.063 96.789 117.81 96.5715 117.607L90.7209 112.123L96.1438 99.0148C96.3284 98.5599 96.3693 98.0568 96.26 97.5841C96.1505 97.1113 95.8966 96.694 95.5383 96.3985C95.1798 96.1031 94.736 95.9454 94.2766 95.9493ZM138.947 88.2696C141.708 88.2696 143.947 90.5082 143.947 93.2696V104.39C143.947 107.151 141.708 109.39 138.947 109.39H128.117C125.356 109.39 123.117 107.151 123.117 104.39V93.2696C123.117 90.5083 125.356 88.2698 128.117 88.2696H138.947ZM138.947 53.6319C141.708 53.632 143.947 55.8706 143.947 58.6319V69.7521C143.947 72.5134 141.708 74.752 138.947 74.7521H61.4651C58.7037 74.7521 56.4651 72.5135 56.4651 69.7521V58.6319C56.4651 55.8705 58.7037 53.6319 61.4651 53.6319H138.947Z" fill="#2F2F2F"/>
</svg>
