<svg width="200" height="200" viewBox="0 0 200 200" fill="none" xmlns="http://www.w3.org/2000/svg">
<path fill-rule="evenodd" clip-rule="evenodd" d="M191.021 0.0440604C196.516 -0.504547 201.232 4.1516 199.701 9.45812C197.038 18.6907 190.588 24.6516 182.702 28.3546C189.222 35.9166 194.881 47.5183 196.396 64.5558C196.885 70.0567 192.193 74.7478 186.916 73.1183C183.549 72.0781 180.631 70.5096 178.109 68.5392V147.612C178.108 164.181 164.677 177.612 148.109 177.612H53.135C52.6098 177.612 52.0872 177.598 51.5686 177.571C45.3775 187.105 32.462 197.609 8.97291 199.954C3.47738 200.503 -1.23832 195.847 0.292246 190.54C2.95534 181.307 9.40598 175.346 17.2913 171.643C10.7722 164.081 5.11393 152.479 3.59889 135.443C3.10985 129.941 7.80131 125.25 13.0784 126.88C17.0168 128.096 20.3406 130.034 23.135 132.494V50.8898C23.135 34.3212 36.5665 20.8898 53.135 20.8898H148.109C148.559 20.8898 149.008 20.9013 149.453 20.921C155.998 11.8146 168.762 2.26617 191.021 0.0440604ZM53.135 35.8898C44.8507 35.8898 38.135 42.6055 38.135 50.8898V147.612C38.1352 155.897 44.8509 162.612 53.135 162.612H148.109C156.393 162.612 163.108 155.896 163.109 147.612V50.8898C163.109 42.6057 156.393 35.89 148.109 35.8898H53.135ZM107.285 88.2687C110.047 88.2687 112.285 90.5072 112.285 93.2687V139.871C112.285 142.632 110.047 144.871 107.285 144.871H61.4641C58.7028 144.871 56.4643 142.632 56.4641 139.871V93.2687C56.4641 90.5072 58.7027 88.2687 61.4641 88.2687H107.285ZM138.946 123.751C141.707 123.751 143.946 125.99 143.946 128.751V139.871C143.946 142.633 141.707 144.871 138.946 144.871H128.117C125.356 144.871 123.117 142.633 123.117 139.871V128.751C123.117 125.99 125.356 123.751 128.117 123.751H138.946ZM94.2756 95.9484C93.8161 95.9524 93.3661 96.1182 92.9954 96.42L73.7874 112.065C73.5272 112.275 73.3142 112.546 73.1653 112.856C73.0164 113.165 72.9357 113.505 72.929 113.849C72.9325 114.195 73.0075 114.535 73.1497 114.842C73.2919 115.149 73.4977 115.417 73.7512 115.625L81.3528 121.654L75.97 134.611C75.7804 135.077 75.7411 135.593 75.8596 136.075C75.9784 136.558 76.2475 136.979 76.6233 137.27C76.8309 137.439 77.0713 137.559 77.3274 137.623C77.6586 137.711 78.0075 137.709 78.343 137.618C78.6787 137.528 78.9916 137.351 79.2522 137.103L96.4504 120.911C96.6858 120.709 96.8801 120.456 97.0188 120.17C97.1575 119.884 97.238 119.57 97.2551 119.252C97.2574 118.938 97.1972 118.629 97.0794 118.346C96.9614 118.062 96.7881 117.81 96.5706 117.606L90.72 112.122L96.1428 99.0138C96.3274 98.5589 96.3683 98.0558 96.259 97.5831C96.1495 97.1103 95.8957 96.693 95.5374 96.3976C95.1788 96.1021 94.7351 95.9443 94.2756 95.9484ZM138.946 88.2687C141.707 88.2687 143.946 90.5072 143.946 93.2687V104.389C143.946 107.15 141.707 109.389 138.946 109.389H128.117C125.356 109.389 123.117 107.15 123.117 104.389V93.2687C123.117 90.5072 125.356 88.2687 128.117 88.2687H138.946ZM138.946 53.631C141.707 53.631 143.946 55.8695 143.946 58.631V69.7511C143.946 72.5125 141.707 74.7511 138.946 74.7511H61.4641C58.7027 74.7511 56.4641 72.5125 56.4641 69.7511V58.631C56.4641 55.8695 58.7027 53.631 61.4641 53.631H138.946Z" fill="#247D4E"/>
</svg>
